# xmcd
#
# Track frame offsets:
#	150
#	12872
#	27686
#	42608
#	56580
#	75438
#	90895
#	104680
#	118990
#	137135
#	152846
#
# Disc length: 2244 seconds
#
# Revision: 0
# Processed by: cddbd v1.5.2PL0 Copyright (c) Steve Scherf et al.
# Submitted via: audiograbber 1.83.01
#
DISCID=9008c20b
DTITLE=Lady Antebellum - 747
DYEAR=2014
DGENRE=Country
TTITLE0=Long Strech
TTITLE1=Bartender
TTITLE2=Lay With Me
TTITLE3=Freestyle
TTITLE4=Down South
TTITLE5=One Great Mystery
TTITLE6=Sounded Good At The Time
TTITLE7=She Is
TTITLE8=Damn You Seventeen
TTITLE9=747
TTITLE10=Just A Girl
EXTD=
EXTT0=
EXTT1=
EXTT2=
EXTT3=
EXTT4=
EXTT5=
EXTT6=
EXTT7=
EXTT8=
EXTT9=
EXTT10=
PLAYORDER=
